<?xml version="1.0" encoding="UTF-8"?>
<svg xmlns="http://www.w3.org/2000/svg" version="1.1" viewBox="0 0 150 150">
  <defs>
    <style>
      .cls-1 {
        isolation: isolate;
      }

      .cls-2 {
        mix-blend-mode: multiply;
      }

      .cls-2, .cls-3 {
        fill: #fff;
        stroke-width: 0px;
      }
    </style>
  </defs>
  <g class="cls-1">
    <g id="Capa_1" data-name="Capa 1">
      <g>
        <path class="cls-3" d="M93.9,8.9H8.8v24.4h85.1c12.3,0,22.3,10,22.3,22.3s-10,22.3-22.3,22.3h-50.4l24.4,24.4h26c2.6,0,5.2-.2,7.8-.6,22.1-3.7,38.9-23,38.9-46.1S119.6,8.9,93.9,8.9Z"/>
        <polygon class="cls-2" points="8.9 8.9 65.2 33.2 8.8 33.2 8.9 8.9"/>
        <polygon class="cls-3" points="141.2 141.1 106.7 141.1 8.8 43.3 8.8 8.9 8.9 8.9 101.7 101.6 141.2 141.1"/>
        <polygon class="cls-3" points="72.2 141.1 37.8 141.1 8.8 112.2 8.8 77.7 72.2 141.1"/>
      </g>
    </g>
  </g>
</svg>