<?xml version="1.0" encoding="UTF-8"?>
<svg xmlns="http://www.w3.org/2000/svg" version="1.1" xmlns:xlink="http://www.w3.org/1999/xlink" viewBox="0 0 150 150">
  <defs>
    <style>
      .cls-1 {
        fill: url(#New_Gradient_Swatch_9-3);
      }

      .cls-1, .cls-2, .cls-3, .cls-4 {
        stroke-width: 0px;
      }

      .cls-5 {
        isolation: isolate;
      }

      .cls-2 {
        fill: url(#New_Gradient_Swatch_10);
        mix-blend-mode: multiply;
      }

      .cls-3 {
        fill: url(#New_Gradient_Swatch_9);
      }

      .cls-4 {
        fill: url(#New_Gradient_Swatch_9-2);
      }
    </style>
    <linearGradient id="New_Gradient_Swatch_9" data-name="New Gradient Swatch 9" x1="8.8" y1="55.6" x2="140.6" y2="55.6" gradientUnits="userSpaceOnUse">
      <stop offset="0" stop-color="#722e46"/>
      <stop offset=".5" stop-color="#f44546"/>
      <stop offset="1" stop-color="#722e46"/>
    </linearGradient>
    <linearGradient id="New_Gradient_Swatch_10" data-name="New Gradient Swatch 10" x1=".5" y1="35.4" x2="51.4" y2="15.4" gradientUnits="userSpaceOnUse">
      <stop offset="0" stop-color="#000"/>
      <stop offset="1" stop-color="#000" stop-opacity="0"/>
    </linearGradient>
    <linearGradient id="New_Gradient_Swatch_9-2" data-name="New Gradient Swatch 9" y1="75" x2="141.2" y2="75" xlink:href="#New_Gradient_Swatch_9"/>
    <linearGradient id="New_Gradient_Swatch_9-3" data-name="New Gradient Swatch 9" y1="109.4" x2="72.2" y2="109.4" xlink:href="#New_Gradient_Swatch_9"/>
  </defs>
  <g class="cls-5">
    <g id="Capa_1" data-name="Capa 1">
      <g>
        <path class="cls-3" d="M93.9,8.9H8.8v24.4h85.1c12.3,0,22.3,10,22.3,22.3s-10,22.3-22.3,22.3h-50.4l24.4,24.4h26c2.6,0,5.2-.2,7.8-.6,22.1-3.7,38.9-23,38.9-46.1S119.6,8.9,93.9,8.9Z"/>
        <polygon class="cls-2" points="8.9 8.9 65.2 33.2 8.8 33.2 8.9 8.9"/>
        <polygon class="cls-4" points="141.2 141.1 106.7 141.1 8.8 43.3 8.8 8.9 8.9 8.9 101.7 101.6 141.2 141.1"/>
        <polygon class="cls-1" points="72.2 141.1 37.8 141.1 8.8 112.2 8.8 77.7 72.2 141.1"/>
      </g>
    </g>
  </g>
</svg>